<svg xmlns="http://www.w3.org/2000/svg" viewBox="0 0 200 280" fill="none">
  <path d="M100 260 C95 220 90 180 100 140 C85 130 70 100 75 70 C80 45 90 30 100 20 C110 30 120 45 125 70 C130 100 115 130 100 140 C110 180 105 220 100 260Z" fill="#5A8F4A" opacity="0.85"/>
  <path d="M100 140 C60 120 40 90 35 55 C50 75 70 95 100 110 C130 95 150 75 165 55 C160 90 140 120 100 140Z" fill="#6BA858" opacity="0.9"/>
  <path d="M100 110 C75 95 55 70 50 40 C65 58 82 78 100 92 C118 78 135 58 150 40 C145 70 125 95 100 110Z" fill="#7DB868" opacity="0.85"/>
  <path d="M100 92 C80 80 65 58 62 30 C72 48 85 65 100 78 C115 65 128 48 138 30 C135 58 120 80 100 92Z" fill="#8FC878"/>
  <path d="M96 260 L104 260 L102 200 L98 200 Z" fill="#4A7A3A"/>
</svg>
