<svg xmlns="http://www.w3.org/2000/svg" viewBox="0 0 120 200" fill="none">
  <path d="M60 190 C55 150 50 110 58 70 C45 60 35 40 38 20 C48 35 55 55 60 75 C65 55 72 35 82 20 C85 40 75 60 62 70 C70 110 65 150 60 190Z" fill="#3D8B6E" opacity="0.9"/>
  <path d="M60 75 C40 65 25 45 22 25 C35 40 48 58 60 68 C72 58 85 40 98 25 C95 45 80 65 60 75Z" fill="#4A9E7A"/>
  <path d="M60 68 C48 58 38 42 36 28 C44 38 52 50 60 58 C68 50 76 38 84 28 C82 42 72 58 60 68Z" fill="#5AB08A"/>
  <rect x="56" y="130" width="8" height="60" rx="3" fill="#2D6B52" opacity="0.8"/>
</svg>
